<?xml version="1.0" standalone="no"?>
<!DOCTYPE svg PUBLIC "-//W3C//DTD SVG 20010904//EN"
 "http://www.w3.org/TR/2001/REC-SVG-20010904/DTD/svg10.dtd">
<svg version="1.0" xmlns="http://www.w3.org/2000/svg"
 width="900.000000pt" height="900.000000pt" viewBox="0 0 900.000000 900.000000"
 preserveAspectRatio="xMidYMid meet">

<g transform="translate(0.000000,900.000000) scale(0.100000,-0.100000)"
fill="#000000" stroke="none">
<path d="M773 7409 c-22 -11 -57 -35 -76 -54 -110 -107 -103 -298 14 -398 74
-64 100 -67 499 -67 l358 0 10 -27 c11 -32 157 -417 557 -1478 64 -170 162
-429 217 -575 134 -356 245 -650 368 -975 219 -578 290 -769 287 -770 -96 -50
-221 -163 -284 -255 -107 -158 -158 -367 -133 -548 23 -170 95 -323 208 -443
159 -169 341 -249 568 -249 183 0 331 50 478 161 126 96 240 270 281 429 33
130 28 336 -10 433 -7 16 35 17 793 17 l800 0 -16 -57 c-26 -92 -22 -307 6
-406 79 -276 293 -487 566 -557 98 -25 273 -27 361 -5 240 61 433 218 535 436
96 206 96 463 1 673 -102 226 -324 401 -565 445 -41 8 -517 11 -1552 11 -1412
0 -1492 1 -1499 18 -40 105 -135 361 -135 366 0 3 784 6 1743 6 1730 0 1742 1
1787 21 25 11 60 35 78 52 54 52 61 69 166 412 25 83 138 452 252 820 251 818
272 884 294 960 10 33 37 121 61 195 63 196 58 284 -23 375 -17 20 -54 48 -82
63 l-51 27 -2668 5 -2669 5 -92 245 c-136 360 -197 521 -213 557 -21 51 -74
104 -128 129 l-50 24 -500 0 c-485 0 -501 -1 -542 -21z m3227 -1496 c0 -11 27
-363 45 -591 8 -101 15 -195 15 -208 l0 -24 -621 2 -621 3 -149 395 c-82 217
-151 403 -155 413 -5 16 35 17 740 17 410 0 746 -3 746 -7z m1546 -40 c-3 -27
-10 -111 -16 -188 -6 -77 -13 -160 -15 -185 -2 -25 -9 -112 -15 -195 -6 -82
-13 -165 -16 -182 l-5 -33 -573 0 -573 0 -7 83 c-4 45 -9 111 -11 147 -10 140
-27 356 -41 523 l-6 77 641 0 642 0 -5 -47z m1654 39 c0 -5 -6 -28 -14 -53 -8
-24 -40 -127 -71 -229 -54 -175 -134 -436 -156 -507 l-11 -33 -592 0 c-326 0
-595 2 -597 4 -4 5 12 270 25 406 3 30 10 127 16 215 6 88 13 170 16 183 l4
22 690 0 c380 0 690 -4 690 -8z m-3116 -1104 c2 -7 14 -150 26 -318 11 -168
24 -329 27 -357 l6 -53 -471 0 -470 0 -26 68 c-14 37 -77 203 -140 370 l-114
302 579 0 c455 0 580 -3 583 -12z m1376 -15 c0 -16 -7 -104 -15 -198 -8 -93
-20 -248 -26 -342 l-13 -173 -498 0 -498 0 -1 23 c0 12 -2 29 -3 37 -2 8 -6
62 -10 120 -12 188 -36 494 -40 528 l-5 32 555 0 554 0 0 -27z m1400 16 c0 -6
-16 -61 -34 -122 -19 -62 -65 -209 -101 -327 -36 -118 -71 -230 -76 -247 l-11
-33 -480 0 -481 0 7 103 c7 114 10 151 31 417 8 101 15 193 15 202 0 17 32 18
565 18 402 0 565 -3 565 -11z m-3383 -2228 c150 -76 179 -285 57 -403 -162
-156 -432 -23 -411 202 16 176 199 280 354 201z m3054 14 c61 -21 110 -63 138
-121 65 -128 18 -272 -108 -336 -164 -83 -355 37 -353 222 1 172 163 289 323
235z"/>
</g>
</svg>
