<?xml version="1.0" standalone="no"?>
<!DOCTYPE svg PUBLIC "-//W3C//DTD SVG 20010904//EN"
 "http://www.w3.org/TR/2001/REC-SVG-20010904/DTD/svg10.dtd">
<svg version="1.0" xmlns="http://www.w3.org/2000/svg"
 width="225.000000pt" height="225.000000pt" viewBox="0 0 225.000000 225.000000"
 preserveAspectRatio="xMidYMid meet">

<g transform="translate(0.000000,225.000000) scale(0.100000,-0.100000)"
fill="#000000" stroke="none">
<path d="M856 1668 c-6 -36 -86 -198 -96 -198 -13 0 -60 98 -60 123 0 14 5 38
10 53 16 41 -4 54 -24 16 -29 -56 -15 -127 39 -198 21 -27 23 -37 15 -59 -17
-45 -11 -117 14 -170 25 -53 105 -136 177 -182 24 -15 72 -47 107 -71 l63 -43
-25 -30 c-14 -16 -27 -38 -31 -48 -6 -19 -6 -20 -38 -1 -25 15 -36 31 -45 67
-7 26 -22 62 -33 80 -23 36 -91 73 -136 73 -31 0 -31 0 -21 -37 22 -82 53
-119 129 -158 44 -23 47 -26 51 -75 4 -36 14 -63 36 -93 18 -23 45 -65 62 -93
34 -59 68 -81 97 -65 11 5 50 54 86 108 51 78 66 109 72 150 6 47 10 53 39 63
55 18 103 66 125 126 12 30 21 61 21 68 0 21 -87 1 -128 -30 -35 -27 -71 -93
-72 -130 0 -30 -69 -82 -81 -63 -5 8 -9 17 -9 21 0 3 -11 20 -25 37 l-26 30
63 43 c35 24 83 56 107 71 72 46 152 129 177 182 25 53 31 125 14 170 -8 22
-6 32 15 59 54 71 68 142 39 198 -20 38 -40 25 -24 -16 5 -15 10 -39 10 -53 0
-25 -47 -123 -59 -123 -11 0 -91 163 -97 198 -4 19 -13 32 -21 32 -24 0 -7
-62 46 -168 l47 -95 -40 -63 c-23 -34 -44 -63 -47 -63 -10 -1 -40 114 -46 175
-4 39 -10 54 -21 54 -21 0 -11 -88 23 -199 14 -47 25 -94 25 -105 0 -35 -55
-139 -91 -172 -35 -31 -135 -104 -144 -104 -9 0 -109 73 -144 104 -36 33 -91
137 -91 172 0 11 11 58 25 105 34 111 44 199 23 199 -11 0 -17 -15 -21 -54 -6
-61 -36 -176 -46 -175 -3 0 -24 29 -47 63 l-40 63 47 95 c53 106 70 168 46
168 -8 0 -17 -13 -21 -32z m-28 -349 c12 -19 27 -60 33 -90 6 -30 18 -66 25
-81 21 -41 2 -34 -45 18 -67 71 -97 161 -75 218 7 18 21 3 62 -65z m662 16 c0
-53 -29 -114 -81 -169 -44 -49 -67 -60 -48 -24 7 12 19 52 28 88 18 72 80 177
93 157 4 -7 8 -30 8 -52z m-633 -305 c36 -22 60 -54 73 -99 11 -39 4 -39 -48
-1 -34 24 -82 92 -82 115 0 11 26 4 57 -15z m593 8 c0 -28 -51 -95 -90 -117
l-43 -24 7 29 c12 47 44 90 79 108 39 19 47 20 47 4z m-282 -176 l23 -42 -20
-29 c-11 -15 -25 -41 -32 -57 l-11 -29 -20 40 c-11 22 -27 47 -35 57 -13 14
-12 20 3 50 36 72 57 75 92 10z m-118 -79 c31 -38 60 -116 60 -160 0 -31 -15
-22 -40 25 -11 20 -36 59 -55 86 -40 55 -50 115 -16 96 11 -5 33 -27 51 -47z
m225 25 c-6 -29 -75 -146 -120 -203 -15 -19 -16 -17 -10 30 9 70 38 131 82
171 46 42 56 43 48 2z"/>
</g>
</svg>
