<?xml version="1.0" standalone="no"?>
<!DOCTYPE svg PUBLIC "-//W3C//DTD SVG 20010904//EN"
 "http://www.w3.org/TR/2001/REC-SVG-20010904/DTD/svg10.dtd">
<svg version="1.0" xmlns="http://www.w3.org/2000/svg"
 width="225.000000pt" height="225.000000pt" viewBox="0 0 225.000000 225.000000"
 preserveAspectRatio="xMidYMid meet">

<g transform="translate(0.000000,225.000000) scale(0.100000,-0.100000)"
fill="#000000" stroke="none">
<path d="M860 2150 l0 -100 -295 0 -295 0 0 -120 0 -120 855 0 855 0 0 120 0
120 -295 0 -295 0 0 100 0 100 -265 0 -265 0 0 -100z m382 -75 c-4 -25 -5 -25
-117 -25 -112 0 -113 0 -117 25 l-5 25 122 0 122 0 -5 -25z"/>
<path d="M370 1618 c0 -42 46 -838 75 -1313 8 -132 15 -255 15 -272 l0 -33
665 0 665 0 0 33 c0 17 7 140 15 272 29 475 75 1271 75 1313 l0 42 -755 0
-755 0 0 -42z m450 -169 c0 -10 8 -159 45 -847 8 -150 15 -294 15 -321 l0 -48
-67 -6 c-38 -3 -70 -1 -74 4 -3 5 -17 255 -32 556 -16 302 -30 573 -34 605 -6
65 -6 65 90 67 35 1 57 -3 57 -10z m380 -604 l0 -615 -75 0 -75 0 0 615 0 615
75 0 75 0 0 -615z m374 605 c6 -6 -57 -1217 -64 -1223 -3 -3 -35 -3 -72 0
l-68 6 0 48 c0 27 7 171 15 321 37 695 45 837 45 848 0 9 20 11 69 8 39 -2 72
-6 75 -8z"/>
</g>
</svg>
